# xmcd
#
# Track frame offsets: 
#        150
#        13258
#        25223
#        37853
#        48723
#        58073
#        68248
#        81213
#        93588
#        103040
#        117468
#        130070
#        139960
#        151243
#        163815
#        176623
#        189258
#        198998
#        210068
#        220153
#
# Disc length: 3064 seconds
#
# Revision: 2
# Processed by: cddbd v1.5.2PL0 Copyright (c) Steve Scherf et al.
# Submitted via: ExactAudioCopy v1.0b4
#
DISCID=190bf614
DTITLE=Jim Reeves - The Definitive CD 1
DYEAR=1992
DGENRE=Country
TTITLE0=Distant Drums
TTITLE1=Welcome to my World
TTITLE2=I Can't Stop Loving You
TTITLE3=He'll Have to Go
TTITLE4=I Won't Forget You
TTITLE5=You're the Only Good Thing (That's Ever Happened To Me)
TTITLE6=Four Walls
TTITLE7=Blues Skies
TTITLE8=There's a Heartache Following Me
TTITLE9=Guilty
TTITLE10=I Love You Because
TTITLE11=It Hurts So Much to See You Go
TTITLE12=Moon River
TTITLE13=Not Until the Next Time
TTITLE14=This World Is Not My Home
TTITLE15=Golden Memories And Silver Tears
TTITLE16=I Won't Come In While He's There
TTITLE17=Make The World Go Away
TTITLE18=I Heard A Heart Break Last Night
TTITLE19=Charmaine
EXTD=
EXTT0=
EXTT1=
EXTT2=
EXTT3=
EXTT4=
EXTT5=
EXTT6=
EXTT7=
EXTT8=
EXTT9=
EXTT10=
EXTT11=
EXTT12=
EXTT13=
EXTT14=
EXTT15=
EXTT16=
EXTT17=
EXTT18=
EXTT19=
PLAYORDER=
